<mxfile host="65bd71144e">
    <diagram id="1gja9snq440L0BmjpoBh" name="Page-1">
        <mxGraphModel dx="576" dy="419" grid="1" gridSize="10" guides="1" tooltips="1" connect="1" arrows="1" fold="1" page="1" pageScale="1" pageWidth="850" pageHeight="1100" math="0" shadow="0">
            <root>
                <mxCell id="0"/>
                <mxCell id="1" parent="0"/>
                <mxCell id="2" value="+-----------------+          +-----------------+          +-----------------+&#xa;|     User        |          |    Session      |          |  OAuthService   |&#xa;+-----------------+          +-----------------+          +-----------------+&#xa;| - id: string    |          | - userId: string|          |                 |&#xa;| - email: string |          | - token: string |          +-----------------+&#xa;| - password: str |          | - expiresAt: dt |          | +authenticate() |&#xa;| - name: string  |&lt;--------&gt;|                 |          +-----------------+&#xa;| - provider: str |          +-----------------+                  ^&#xa;| - providerId: s |                                               |&#xa;+-----------------+                                               |&#xa;                                                                  |&#xa;                                                                  |&#xa;                                                          +-----------------+&#xa;                                                          |   Google/GitHub |&#xa;                                                          |   /Facebook API |&#xa;                                                          +-----------------+" style="text;whiteSpace=wrap;" vertex="1" parent="1">
                    <mxGeometry x="10" y="120" width="370" height="250" as="geometry"/>
                </mxCell>
                <mxCell id="3" value="&lt;h4 style=&quot;font-weight: var(--ds-font-weight-strong); font-size: 16.002px; line-height: var(--ds-md-line-height); margin: calc(var(--ds-md-zoom)*16px)0 calc(var(--ds-md-zoom)*12px)0; color: rgb(64, 64, 64); font-family: Inter, system-ui, -apple-system, BlinkMacSystemFont, &amp;quot;Segoe UI&amp;quot;, Roboto, &amp;quot;Noto Sans&amp;quot;, Ubuntu, Cantarell, &amp;quot;Helvetica Neue&amp;quot;, Oxygen, &amp;quot;Open Sans&amp;quot;, sans-serif; font-style: normal; font-variant-ligatures: normal; font-variant-caps: normal; letter-spacing: normal; orphans: 2; text-align: start; text-indent: 0px; text-transform: none; widows: 2; word-spacing: 0px; -webkit-text-stroke-width: 0px; white-space: normal; text-decoration-thickness: initial; text-decoration-style: initial; text-decoration-color: initial;&quot;&gt;diagramme de classes&lt;/h4&gt;" style="text;whiteSpace=wrap;html=1;" vertex="1" parent="1">
                    <mxGeometry x="20" y="60" width="190" height="40" as="geometry"/>
                </mxCell>
                <mxCell id="4" value="&lt;h3 style=&quot;font-weight: var(--ds-font-weight-strong); font-size: calc(var(--ds-md-zoom)*16px); line-height: 1.5; margin: calc(var(--ds-md-zoom)*16px)0 calc(var(--ds-md-zoom)*12px)0; color: rgb(64, 64, 64); font-family: Inter, system-ui, -apple-system, BlinkMacSystemFont, &amp;quot;Segoe UI&amp;quot;, Roboto, &amp;quot;Noto Sans&amp;quot;, Ubuntu, Cantarell, &amp;quot;Helvetica Neue&amp;quot;, Oxygen, &amp;quot;Open Sans&amp;quot;, sans-serif; font-style: normal; font-variant-ligatures: normal; font-variant-caps: normal; letter-spacing: normal; orphans: 2; text-align: start; text-indent: 0px; text-transform: none; widows: 2; word-spacing: 0px; -webkit-text-stroke-width: 0px; white-space: normal; text-decoration-thickness: initial; text-decoration-style: initial; text-decoration-color: initial;&quot;&gt;&lt;strong&gt;Diagramme de Séquence&lt;/strong&gt;&lt;/h3&gt;" style="text;whiteSpace=wrap;html=1;" vertex="1" parent="1">
                    <mxGeometry x="10" y="380" width="170" height="40" as="geometry"/>
                </mxCell>
                <mxCell id="5" value="Frontend          API REST          OAuth Service       MongoDB&#xa;   |                  |                   |                |&#xa;   |--- Connexion ---&gt;|                   |                |&#xa;   |&lt;-- Redirection --|                   |                |&#xa;   |--- Code OAuth --&gt;|                   |                |&#xa;   |                  |--- Code OAuth ---&gt;|                |&#xa;   |                  |&lt;-- Token OAuth ---|                |&#xa;   |                  |--- Infos User ---&gt;|                |&#xa;   |                  |&lt;-- Infos User ----|                |&#xa;   |                  |--- Créer/Update -&gt;|                |&#xa;   |                  |&lt;-- User ID -------|                |&#xa;   |                  |--- Générer JWT --&gt;|                |&#xa;   |&lt;-- JWT ----------" style="text;whiteSpace=wrap;" vertex="1" parent="1">
                    <mxGeometry x="120" y="420" width="360" height="210" as="geometry"/>
                </mxCell>
                <mxCell id="6" value="&lt;h3 style=&quot;font-weight: var(--ds-font-weight-strong); font-size: calc(var(--ds-md-zoom)*16px); line-height: 1.5; margin: calc(var(--ds-md-zoom)*16px)0 calc(var(--ds-md-zoom)*12px)0; color: rgb(64, 64, 64); font-family: Inter, system-ui, -apple-system, BlinkMacSystemFont, &amp;quot;Segoe UI&amp;quot;, Roboto, &amp;quot;Noto Sans&amp;quot;, Ubuntu, Cantarell, &amp;quot;Helvetica Neue&amp;quot;, Oxygen, &amp;quot;Open Sans&amp;quot;, sans-serif; font-style: normal; font-variant-ligatures: normal; font-variant-caps: normal; letter-spacing: normal; orphans: 2; text-align: start; text-indent: 0px; text-transform: none; widows: 2; word-spacing: 0px; -webkit-text-stroke-width: 0px; white-space: normal; text-decoration-thickness: initial; text-decoration-style: initial; text-decoration-color: initial;&quot;&gt;&lt;strong&gt;Diagramme de Cas d&#39;Utilisation&lt;/strong&gt;&lt;/h3&gt;" style="text;whiteSpace=wrap;html=1;" vertex="1" parent="1">
                    <mxGeometry y="660" width="210" height="40" as="geometry"/>
                </mxCell>
                <mxCell id="7" value="+-------------------+       +-------------------+&#xa;|    Utilisateur    |       |  Système OAuth    |&#xa;+-------------------+       +-------------------+&#xa;        |                           |&#xa;        |--- S&#39;inscrire -----------&gt;|&#xa;        |--- Se connecter ---------&gt;|&#xa;        |--- Se déconnecter -------&gt;|&#xa;        |--- Gérer le profil ------&gt;" style="text;whiteSpace=wrap;" vertex="1" parent="1">
                    <mxGeometry x="150" y="690" width="250" height="140" as="geometry"/>
                </mxCell>
            </root>
        </mxGraphModel>
    </diagram>
</mxfile>